# xmcd CD database file
#
# Track frame offsets:
#	150
#	18213
#	60080
#	100427
#	139992
#	154374
#
# Disc length: 2996 seconds
#
# Revision: 0
# Processed by: cddbd v1.5.1PL0 Copyright (c) Steve Scherf et al.
# Submitted via: CDex 1.51
#
DISCID=470bb206
DTITLE=Mercan Dede - Sufi Dreams
DYEAR=1998
DGENRE=New Age
TTITLE0=Mevlâna Celaleddin Rumi (Dream Of Shams)
TTITLE1=The Awakening (Dream Of Lover)
TTITLE2=The Name Of The City (Dream Of Adam)
TTITLE3=Walking On The Red Sea (Dreams Of The Sufi Saints)
TTITLE4=Hidrelez (Dream Of Perhan)
TTITLE5=Last Chapter (Dream Of The Dreams)
EXTD=YEAR: 1998
EXTT0=
EXTT1=
EXTT2=
EXTT3=
EXTT4=
EXTT5=
PLAYORDER=
